<?xml version="1.0" encoding="UTF-8" standalone="no"?>
<!-- Created with Inkscape (http://www.inkscape.org/) -->

<svg
   width="512mm"
   height="512mm"
   viewBox="0 0 512 512"
   version="1.1"
   id="svg1"
   xml:space="preserve"
   inkscape:version="1.3 (0e150ed6c4, 2023-07-21)"
   sodipodi:docname="logo.svg"
   xmlns:inkscape="http://www.inkscape.org/namespaces/inkscape"
   xmlns:sodipodi="http://sodipodi.sourceforge.net/DTD/sodipodi-0.dtd"
   xmlns="http://www.w3.org/2000/svg"
   xmlns:svg="http://www.w3.org/2000/svg"><sodipodi:namedview
     id="namedview1"
     pagecolor="#747474"
     bordercolor="#000000"
     borderopacity="0"
     inkscape:showpageshadow="2"
     inkscape:pageopacity="0.0"
     inkscape:pagecheckerboard="true"
     inkscape:deskcolor="#191919"
     inkscape:document-units="mm"
     showguides="true"
     inkscape:zoom="0.36945288"
     inkscape:cx="500.74045"
     inkscape:cy="1102.9823"
     inkscape:window-width="2560"
     inkscape:window-height="1369"
     inkscape:window-x="-8"
     inkscape:window-y="-8"
     inkscape:window-maximized="1"
     inkscape:current-layer="layer1"><sodipodi:guide
       position="307.22794,356.5677"
       orientation="0,-1"
       id="guide2"
       inkscape:locked="false" /><sodipodi:guide
       position="39.388197,359.43229"
       orientation="1,0"
       id="guide3"
       inkscape:locked="false" /><sodipodi:guide
       position="368.1006,357.28383"
       orientation="1,0"
       id="guide4"
       inkscape:locked="false" /><sodipodi:guide
       position="307.22794,356.5677"
       orientation="1,0"
       id="guide5"
       inkscape:locked="false" /><sodipodi:guide
       position="173.30807,142.4671"
       orientation="0,-1"
       id="guide6"
       inkscape:locked="false" /></sodipodi:namedview><defs
     id="defs1" /><g
     inkscape:label="Circle"
     inkscape:groupmode="layer"
     id="layer1"
     style="display:inline"><path
       id="path1"
       style="fill:#000000;stroke:none;stroke-width:2.51896"
       d="M 255.99988 0 A 256 256 0 0 0 56.983602 95.762113 L 455.58149 95.762113 A 256 256 0 0 0 255.99988 0 z M 19.191077 160.22588 A 256 256 0 0 0 0 255.99988 A 256 256 0 0 0 17.288867 346.67445 L 242.78931 346.67445 L 242.78931 407.18238 L 50.204687 407.18238 A 256 256 0 0 0 255.99988 511.99976 A 256 256 0 0 0 511.99976 255.99988 A 256 256 0 0 0 493.35903 160.22588 L 395.19552 160.22588 L 395.19552 407.18238 L 324.9812 407.18238 L 324.9812 160.22588 L 19.191077 160.22588 z M 16.038814 223.45975 L 242.78931 223.45975 L 242.78931 283.96768 L 16.038814 283.96768 L 16.038814 223.45975 z " /></g><g
     inkscape:groupmode="layer"
     id="layer2"
     inkscape:label="Letters" /></svg>
